PathFileType   4   (X/Y/Z)
DataRate	CameraRate	NumFrames	NumMarkers	Units	OrigDataRate	OrigDataStartFrame	OrigNumFrames
120.0	120.0	6	37	mm	120.0	1	126
Frame#	Time	midhip	hip_r	hip_l	knee_r	knee_l	ankle_r	ankle_l	midasis	asis_r	asis_l	psis_r	psis_l	epicondLat_r	epicondLat_l	epicondMed_r	epicondMed_l	malleolusLat_r	malleolusLat_l	malleolusMedv_r	malleolusMedv_l	neck	subclavicle_r	subclavicle_l	sternalnotch	xyphoidprocess	thighwand_r	thighwand_l	upperleg1_r	upperleg1_l	upperleg2_r	upperleg2_l	shankwand_r	shankwand_l	lowerleg1_r	lowerleg1_l	toe_r	toe_l
 	 	X1	Y1	Z1	X2	Y2	Z2	X3	Y3	Z3	X4	Y4	Z4	X5	Y5	Z5	X6	Y6	Z6	X7	Y7	Z7	X8	Y8	Z8	X9	Y9	Z9	X10	Y10	Z10	X11	Y11	Z11	X12	Y12	Z12	X13	Y13	Z13	X14	Y14	Z14	X15	Y15	Z15	X16	Y16	Z16	X17	Y17	Z17	X18	Y18	Z18	X19	Y19	Z19	X20	Y20	Z20	X21	Y21	Z21	X22	Y22	Z22	X23	Y23	Z23	X24	Y24	Z24	X25	Y25	Z25	X26	Y26	Z26	X27	Y27	Z27	X28	Y28	Z28	X29	Y29	Z29	X30	Y30	Z30	X31	Y31	Z31	X32	Y32	Z32	X33	Y33	Z33	X34	Y34	Z34	X35	Y35	Z35	X36	Y36	Z36	X37	Y37	Z37

	1	0.15000	1293.379	883.070	-241.956	1288.656	868.467	-195.029	1297.152	877.633	-300.863	1232.806	457.270	-172.932	1430.390	483.834	-289.921	934.134	166.312	-155.409	1436.538	68.053	-279.386	1373.788	966.961	-233.320	1365.583	958.110	-131.115	1381.993	975.813	-335.524	1173.176	997.425	-205.232	1176.750	1002.286	-290.454	1238.990	459.608	-113.801	1445.705	487.421	-347.305	1247.751	459.488	-228.403	1407.581	480.733	-246.355	928.437	174.369	-118.713	1439.435	67.098	-318.768	936.621	175.381	-186.100	1442.066	76.121	-249.277	1230.557	1451.345	-251.328	1333.999	1384.743	-167.405	1329.698	1379.595	-324.253	1319.387	1383.000	-249.480	1362.836	1182.686	-250.849	1282.120	562.307	-33.655	1530.890	649.995	-277.763	1312.465	617.459	-104.540	1454.269	683.662	-337.548	1305.981	534.699	-122.957	1468.541	597.601	-328.998	988.876	229.628	-52.892	1537.609	184.065	-262.303	1023.889	273.283	-117.344	1471.945	229.350	-284.190	959.142	52.112	-185.571	1564.909	42.743	-276.409
	2	0.15833	1303.889	885.612	-243.222	1298.413	869.889	-195.520	1307.005	879.183	-301.336	1251.690	456.760	-172.372	1434.354	483.935	-290.764	949.475	170.538	-153.069	1436.567	68.105	-279.538	1383.571	968.438	-233.615	1375.292	959.484	-131.664	1391.849	977.391	-335.567	1182.627	998.664	-205.974	1186.318	1004.137	-291.112	1257.283	459.443	-113.197	1449.781	487.371	-348.127	1266.567	458.736	-227.967	1411.216	481.267	-247.237	944.398	178.382	-116.236	1439.469	67.057	-318.918	950.629	180.908	-183.469	1442.127	76.167	-249.345	1240.099	1452.774	-251.894	1343.537	1386.448	-168.281	1338.906	1381.295	-325.050	1328.752	1384.689	-250.290	1372.404	1184.420	-251.748	1297.216	562.868	-33.227	1536.885	648.802	-278.324	1327.192	618.195	-103.959	1460.950	683.526	-338.295	1322.401	535.305	-122.190	1474.013	597.289	-329.705	1006.531	232.204	-50.869	1538.692	183.137	-262.613	1040.654	276.098	-115.070	1473.894	229.316	-284.393	970.851	56.155	-185.232	1564.860	42.705	-276.454
	3	0.16667	1313.921	887.736	-244.651	1307.991	871.228	-195.768	1316.626	880.573	-301.575	1270.759	456.571	-171.906	1438.192	484.069	-291.492	965.182	174.769	-151.265	1436.558	68.189	-279.643	1393.197	969.766	-233.779	1384.893	960.779	-132.032	1401.501	978.752	-335.527	1192.019	999.860	-206.701	1195.714	1005.928	-291.784	1275.789	459.526	-112.693	1453.636	487.345	-348.859	1285.675	458.695	-227.870	1414.554	481.853	-248.082	960.810	182.221	-114.260	1439.448	67.056	-319.021	965.450	186.112	-181.506	1442.098	76.245	-249.427	1249.689	1454.223	-252.278	1352.976	1388.186	-169.042	1348.025	1382.928	-325.791	1338.023	1386.371	-251.016	1381.705	1186.108	-252.430	1312.504	563.590	-32.892	1542.661	647.559	-278.982	1342.185	619.229	-103.438	1467.408	683.377	-338.998	1339.072	536.424	-121.598	1479.180	596.967	-330.418	1024.793	234.371	-49.277	1539.653	182.244	-262.908	1057.472	278.803	-113.239	1474.838	228.896	-284.830	985.228	60.640	-184.924	1564.767	42.702	-276.467
	4	0.17500	1323.776	889.659	-246.006	1317.415	872.491	-195.846	1326.038	881.822	-301.656	1289.959	456.721	-171.514	1441.895	484.191	-292.108	981.345	178.817	-150.032	1436.537	68.279	-279.712	1402.684	970.966	-233.882	1394.403	962.005	-132.261	1410.965	979.927	-335.503	1201.386	1001.013	-207.357	1205.053	1007.622	-292.418	1294.485	459.889	-112.271	1457.275	487.294	-349.502	1303.855	458.906	-227.710	1417.809	482.401	-248.781	977.679	185.762	-112.853	1439.403	67.068	-319.089	981.410	190.550	-180.310	1442.101	76.346	-249.436	1258.325	1455.566	-252.875	1362.242	1389.843	-169.699	1357.052	1384.520	-326.460	1347.160	1387.942	-251.658	1391.677	1187.863	-253.091	1328.020	564.511	-32.644	1548.278	646.243	-279.719	1357.163	620.410	-103.099	1473.576	683.154	-339.677	1355.463	537.526	-121.224	1484.088	596.565	-331.115	1043.508	236.191	-48.163	1540.526	181.389	-263.187	1075.033	281.049	-111.854	1475.625	228.451	-285.226	1002.015	65.159	-184.511	1564.650	42.711	-276.469
	5	0.18333	1332.768	890.616	-247.309	1326.707	873.693	-195.836	1335.264	882.953	-301.658	1309.286	457.202	-171.171	1445.450	484.256	-292.636	998.116	182.474	-149.357	1436.530	68.351	-279.754	1412.040	972.067	-233.990	1403.825	963.177	-132.396	1420.254	980.957	-335.584	1210.740	1002.114	-207.926	1214.367	1009.197	-292.982	1313.356	460.542	-111.905	1460.696	487.170	-350.076	1322.730	459.219	-227.487	1421.001	482.942	-249.224	995.073	188.885	-112.026	1439.359	67.070	-319.132	998.447	194.361	-180.150	1442.513	76.485	-249.412	1266.987	1456.835	-253.432	1371.463	1391.297	-170.302	1366.036	1386.055	-327.091	1356.254	1389.395	-252.255	1401.462	1189.473	-253.888	1343.733	565.647	-32.458	1553.770	644.825	-280.542	1372.485	621.885	-102.937	1479.492	682.823	-340.351	1372.278	538.962	-120.848	1488.760	596.075	-331.763	1062.547	237.728	-47.518	1541.341	180.571	-263.458	1093.158	283.233	-111.016	1476.775	228.227	-285.444	1020.959	69.419	-183.882	1564.531	42.714	-276.471
	6	0.19167	1340.387	890.076	-248.577	1335.881	874.857	-195.805	1344.327	883.993	-301.647	1328.775	457.974	-170.867	1448.859	484.267	-293.180	1015.583	185.609	-149.158	1436.538	68.401	-279.783	1421.269	973.104	-234.163	1413.155	964.328	-132.490	1429.382	981.880	-335.836	1220.101	1003.173	-208.380	1223.682	1010.639	-293.442	1332.410	461.458	-111.580	1463.927	486.990	-350.676	1342.671	460.009	-227.497	1424.186	483.410	-249.563	1013.031	191.529	-111.709	1439.325	67.050	-319.162	1016.378	197.480	-180.420	1443.621	76.618	-249.302	1276.545	1458.211	-253.630	1380.711	1392.632	-170.871	1374.944	1387.462	-327.673	1365.327	1390.795	-252.804	1410.090	1190.774	-254.609	1359.605	566.997	-32.313	1559.117	643.284	-281.478	1388.291	623.702	-102.820	1485.214	682.343	-341.063	1389.671	540.891	-120.492	1493.274	595.513	-332.428	1081.812	239.039	-47.299	1542.121	179.785	-263.736	1111.885	285.374	-110.770	1477.858	227.993	-285.670	1041.190	73.031	-182.886	1564.427	42.697	-276.482
